<?xml version="1.0" encoding="utf-8"?>
<!-- Generator: Adobe Illustrator 22.0.1, SVG Export Plug-In . SVG Version: 6.00 Build 0)  -->
<svg version="1.1" id="Ebene_1" xmlns="http://www.w3.org/2000/svg" xmlns:xlink="http://www.w3.org/1999/xlink" x="0px" y="0px"
	 viewBox="0 0 120 120" style="enable-background:new 0 0 120 120;" xml:space="preserve">
<style type="text/css">
	.st0{fill:#FFFFFF;}
	.st1{fill:#2f5e60;}
</style>
<g>
	<circle class="st0" cx="60.3" cy="60" r="60"/>
	<g>
		<g>
			<path class="st1" d="M31.6,96.3c-0.3,0.4-0.8,0.9-1.2,1.1c-0.5,0.3-1.1,0.5-1.6,0.5c-0.7,0-1.3-0.3-1.8-0.9
				c-0.5-0.6-0.8-1.4-0.8-2.6c0-0.9,0.2-1.7,0.5-2.4c0.3-0.7,0.8-1.3,1.4-1.7c0.6-0.4,1.3-0.6,2.2-0.6c0.2,0,0.6,0,1.1,0.1l0.2,0
				v-3.4h1.5v11.3h-1.5C31.6,97.7,31.6,96.3,31.6,96.3z M31.6,91.2c-0.4-0.1-0.8-0.1-1.1-0.1c-0.7,0-1.4,0.3-1.9,0.9
				c-0.5,0.6-0.7,1.4-0.7,2.4c0,0.7,0.1,1.3,0.4,1.6c0.3,0.3,0.5,0.5,0.9,0.5c0.4,0,0.8-0.2,1.2-0.6c0.5-0.4,0.9-0.9,1.2-1.5
				L31.6,91.2L31.6,91.2z"/>
			<path class="st1" d="M41.8,97.2c-1.1,0.5-2.1,0.8-3,0.8c-1.4,0-2.6-0.7-3.3-2c-0.3-0.6-0.5-1.4-0.5-2.1c0-0.7,0.2-1.4,0.5-2.1
				c0.3-0.7,0.8-1.2,1.3-1.5c0.6-0.4,1.2-0.6,1.9-0.6c0.9,0,1.7,0.4,2.3,1c0.5,0.7,0.9,1.7,0.9,3.1v0.4h-5.2c0,0.5,0.1,0.9,0.3,1.2
				c0.2,0.4,0.5,0.7,0.8,0.9c0.3,0.2,0.7,0.3,1.2,0.3c0.8,0,1.7-0.3,2.8-0.9C41.8,95.7,41.8,97.2,41.8,97.2z M40.3,92.9L40.3,92.9
				c0-0.6-0.1-1.1-0.4-1.4c-0.3-0.3-0.6-0.5-1.1-0.5c-0.9,0-1.6,0.7-1.9,1.9L40.3,92.9L40.3,92.9z"/>
			<path class="st1" d="M46.4,97.7L43,89.9h1.7l2.5,5.8l2.6-5.8h1.6l-3.4,7.9H46.4z"/>
			<path class="st1" d="M59.1,97.4c-0.7,0.3-1.1,0.4-1.4,0.5c-0.3,0-0.5,0.1-0.8,0.1c-0.5,0-1-0.1-1.5-0.3c-0.5-0.2-0.8-0.5-1.1-1
				c-0.2-0.4-0.4-1.1-0.4-1.9v-2.9h-1.9v-1.3H54v-3.1h1.5v3.1h3.4v1.3h-3.4v2.9c0,0.6,0.1,1,0.2,1.2c0.1,0.2,0.3,0.4,0.5,0.5
				c0.2,0.1,0.5,0.2,0.8,0.2c0.6,0,1.3-0.2,2.1-0.7L59.1,97.4L59.1,97.4z"/>
			<path class="st1" d="M61.8,97.7v-7.9h1.5v1.4c0.8-1,1.8-1.6,2.9-1.6c0.5,0,1,0.1,1.5,0.2v3h-1.5v-1.8c-0.1,0-0.3,0-0.4,0
				c-0.9,0-1.7,0.7-2.6,2.1v4.5H61.8z"/>
			<path class="st1" d="M76.4,97.2c-1.1,0.5-2.1,0.8-3,0.8c-1.4,0-2.6-0.7-3.3-2c-0.3-0.6-0.5-1.4-0.5-2.1c0-0.7,0.2-1.4,0.5-2.1
				c0.3-0.7,0.8-1.2,1.3-1.5c0.6-0.4,1.2-0.6,1.9-0.6c0.9,0,1.7,0.4,2.3,1c0.6,0.7,0.9,1.7,0.9,3.1v0.4h-5.2c0,0.5,0.1,0.9,0.3,1.2
				c0.2,0.4,0.5,0.7,0.8,0.9c0.3,0.2,0.7,0.3,1.2,0.3c0.8,0,1.7-0.3,2.8-0.9V97.2z M74.9,92.9L74.9,92.9c0-0.6-0.1-1.1-0.4-1.4
				c-0.3-0.3-0.6-0.5-1.1-0.5c-0.9,0-1.6,0.7-1.9,1.9L74.9,92.9L74.9,92.9z"/>
			<path class="st1" d="M80.3,97.7v-5.9h-1.7v-1.3h1.7v-0.2c0-1,0.1-1.8,0.4-2.3c0.2-0.5,0.6-0.9,1.1-1.2c0.5-0.3,1.1-0.5,2-0.5
				c0.6,0,1.3,0.1,1.9,0.2V88c-0.8-0.3-1.4-0.4-1.9-0.4c-0.7,0-1.3,0.3-1.7,0.9c-0.2,0.3-0.2,0.9-0.2,1.7v0.4h3v1.3h-3v5.9
				L80.3,97.7L80.3,97.7z"/>
			<path class="st1" d="M88.9,97.7v-5.9h-1.7v-1.3h1.7v-0.2c0-1,0.1-1.8,0.4-2.3c0.2-0.5,0.6-0.9,1.1-1.2c0.5-0.3,1.1-0.5,2-0.5
				c0.6,0,1.3,0.1,1.9,0.2V88c-0.8-0.3-1.4-0.4-1.9-0.4c-0.7,0-1.3,0.3-1.7,0.9c-0.2,0.3-0.2,0.9-0.2,1.7v0.4h3v1.3h-3v5.9
				L88.9,97.7L88.9,97.7z"/>
		</g>
		<g>
			<polygon class="st1" points="53.5,24.7 53.5,42.8 35.3,42.8 35.3,42.8 35.3,79.2 62.5,79.2 62.5,70.1 44.4,70.1 44.4,51.9 
				62.5,51.9 62.5,24.7 			"/>
			<polygon class="st1" points="85.3,33.7 80.7,33.7 80.7,24.7 71.6,24.7 71.6,79.2 80.7,79.2 80.7,42.8 85.3,42.8 			"/>
		</g>
	</g>
</g>
</svg>
