<?xml version="1.0" standalone="no"?>
<!DOCTYPE svg PUBLIC "-//W3C//DTD SVG 20010904//EN"
 "http://www.w3.org/TR/2001/REC-SVG-20010904/DTD/svg10.dtd">
<svg version="1.0" xmlns="http://www.w3.org/2000/svg"
 width="1687.000000pt" height="1687.000000pt" viewBox="0 0 1687.000000 1687.000000"
 preserveAspectRatio="xMidYMid meet">
<metadata>
Created by potrace 1.11, written by Peter Selinger 2001-2013
</metadata>
<g transform="translate(0.000000,1687.000000) scale(0.100000,-0.100000)"
fill="#000000" stroke="none">
<path d="M8367 15612 c-38 -64 -72 -124 -78 -132 -5 -8 -41 -71 -80 -140 -39
-69 -80 -139 -90 -157 -10 -17 -30 -50 -44 -73 -14 -23 -29 -49 -33 -59 -4 -9
-32 -59 -63 -111 -52 -86 -438 -754 -487 -841 -11 -20 -39 -67 -61 -104 -23
-37 -41 -69 -41 -71 0 -3 -12 -23 -26 -46 -14 -23 -36 -60 -49 -82 -28 -51
-91 -161 -116 -201 -10 -16 -22 -36 -26 -44 -3 -7 -75 -133 -160 -278 -84
-146 -153 -269 -153 -273 0 -5 -3 -10 -7 -12 -8 -3 -15 -14 -73 -118 -17 -30
-39 -69 -50 -87 -10 -18 -121 -209 -246 -425 -125 -216 -286 -494 -357 -618
-72 -124 -135 -235 -141 -247 -6 -13 -14 -23 -18 -23 -5 0 -8 -4 -8 -9 0 -8
-88 -163 -302 -531 -30 -52 -108 -187 -173 -300 -111 -193 -194 -336 -215
-370 -5 -8 -24 -42 -43 -75 -58 -101 -73 -128 -104 -181 -17 -27 -41 -70 -55
-95 -14 -24 -98 -170 -188 -324 -89 -154 -223 -386 -297 -515 -75 -129 -144
-247 -154 -262 -11 -15 -19 -29 -19 -32 0 -4 -225 -394 -323 -561 -23 -38 -50
-86 -61 -105 -10 -19 -50 -89 -89 -155 -38 -66 -104 -178 -145 -250 -41 -71
-165 -285 -275 -475 -110 -190 -207 -358 -217 -375 -9 -16 -51 -88 -92 -160
-42 -71 -126 -218 -188 -325 -62 -107 -162 -280 -223 -385 -60 -104 -142 -246
-182 -315 -40 -69 -96 -165 -125 -215 -29 -49 -62 -106 -72 -125 -11 -19 -63
-109 -116 -200 -52 -91 -116 -201 -141 -245 -25 -44 -50 -88 -56 -97 -5 -9
-47 -81 -93 -160 -91 -158 -89 -155 -167 -287 -30 -51 -55 -95 -55 -97 0 -2
-30 -54 -66 -116 -86 -146 -123 -209 -234 -401 -50 -87 -100 -173 -111 -190
-10 -18 -22 -39 -26 -47 -4 -8 -26 -46 -48 -85 -23 -38 -129 -221 -235 -405
-106 -184 -265 -459 -353 -610 -88 -151 -168 -289 -177 -306 -10 -16 -85 -147
-167 -290 -83 -142 -192 -331 -243 -419 -51 -88 -101 -175 -112 -192 l-20 -33
395 0 395 0 0 42 c4 291 137 618 370 910 183 230 515 520 802 703 41 26 93 60
115 75 130 88 526 296 785 413 47 21 92 42 101 47 78 41 520 207 819 307 107
36 196 66 198 68 2 2 -18 106 -34 177 -17 74 -45 216 -60 307 -3 18 -8 43 -10
55 -15 76 -31 172 -38 231 -9 65 -27 201 -31 225 -5 32 -12 99 -20 180 -3 36
-8 81 -10 100 -14 111 -20 273 -20 580 0 301 3 397 19 535 2 17 7 61 11 100 4
38 8 76 10 85 14 75 36 192 41 225 3 22 8 43 10 47 2 3 18 61 35 128 17 67 39
142 49 166 11 24 19 45 19 47 -1 5 16 48 53 134 50 115 126 249 202 352 52 71
178 205 231 246 224 172 444 258 720 280 196 16 320 10 525 -25 466 -82 1014
-326 1585 -705 237 -157 463 -325 670 -495 83 -68 152 -126 155 -129 3 -3 34
-31 70 -61 36 -30 85 -73 110 -96 99 -92 135 -123 141 -124 6 0 24 16 114 99
28 26 84 76 125 111 41 36 77 67 80 70 12 14 228 191 290 240 25 19 47 37 50
40 41 43 550 403 645 456 11 6 74 43 140 83 66 39 131 78 145 86 75 45 334
171 460 225 224 96 524 189 695 215 22 3 72 10 110 16 91 14 312 18 400 8 115
-14 154 -19 167 -24 7 -2 24 -6 38 -9 108 -19 306 -105 422 -183 131 -89 286
-250 382 -400 104 -162 227 -446 261 -606 2 -10 13 -50 23 -90 11 -40 22 -88
26 -107 3 -19 8 -46 11 -60 24 -121 49 -305 62 -455 15 -178 8 -816 -11 -1000
-2 -16 -6 -61 -10 -100 -7 -75 -9 -93 -26 -225 -11 -81 -13 -100 -25 -187 -3
-21 -7 -49 -10 -63 -2 -14 -7 -41 -9 -60 -3 -19 -8 -46 -10 -60 -3 -14 -12
-67 -21 -119 -9 -52 -34 -177 -56 -279 -21 -101 -39 -185 -39 -186 0 -2 6 -3
13 -3 15 -1 437 -145 592 -201 502 -184 1025 -441 1416 -697 250 -163 429
-307 618 -496 134 -133 149 -150 240 -273 213 -285 323 -575 330 -868 l1 -28
411 0 411 0 -14 23 c-8 12 -29 47 -45 77 -17 30 -65 113 -107 184 -42 70 -76
129 -76 131 0 2 -27 49 -60 104 -33 56 -60 106 -60 111 0 6 -4 10 -8 10 -4 0
-13 12 -20 28 -6 15 -21 43 -33 62 -26 43 -617 1063 -779 1345 -10 17 -59 102
-110 190 -51 88 -141 243 -200 345 -59 102 -165 284 -235 405 -70 121 -139
240 -153 265 -28 49 -59 103 -277 480 -82 140 -162 280 -178 310 -16 30 -33
60 -37 65 -4 6 -114 195 -245 420 -130 226 -255 442 -278 480 -23 39 -49 84
-58 100 -22 41 -77 136 -89 155 -5 8 -37 62 -70 120 -33 58 -65 112 -70 120
-14 23 -400 690 -428 740 -14 25 -58 101 -97 170 -40 69 -82 141 -93 160 -11
19 -49 85 -85 147 -36 62 -77 132 -90 155 -13 24 -61 106 -106 182 -44 76 -81
141 -81 143 0 2 -19 36 -43 76 -66 110 -146 247 -235 402 -44 77 -125 218
-181 313 -55 95 -101 176 -101 179 0 3 -8 17 -19 31 -10 15 -29 45 -41 67 -39
70 -402 699 -418 725 -9 14 -23 39 -32 55 -17 30 -207 359 -440 760 -70 121
-137 236 -148 255 -11 19 -43 76 -72 125 -29 50 -64 110 -78 135 -13 25 -28
50 -32 55 -4 6 -18 30 -32 55 -14 25 -98 171 -188 325 -89 154 -176 305 -193
335 -17 30 -41 73 -55 94 -13 22 -34 58 -46 80 -13 23 -114 199 -226 391 -112
193 -211 364 -220 380 -104 182 -396 686 -411 707 -10 15 -19 30 -19 33 0 3
-18 35 -40 71 -22 36 -40 68 -40 70 0 2 -24 43 -52 93 -29 49 -62 104 -72 123
-41 70 -227 392 -338 583 -63 110 -154 267 -202 349 -47 82 -86 150 -86 151 0
1 -29 51 -65 110 -36 59 -65 110 -65 113 0 4 -15 30 -33 59 l-32 52 -68 -117z"/>
<path d="M11360 7238 c-346 -50 -749 -205 -1116 -428 -36 -22 -68 -40 -70 -40
-10 0 -325 -211 -434 -289 -112 -81 -389 -297 -460 -358 -154 -134 -211 -183
-250 -219 -25 -23 -62 -56 -83 -74 -21 -18 -36 -36 -35 -41 2 -4 50 -58 108
-120 365 -390 691 -779 1026 -1224 167 -221 144 -204 284 -220 58 -6 101 -12
160 -20 19 -2 56 -7 83 -10 119 -13 145 -17 192 -25 28 -5 72 -12 98 -15 27
-4 56 -8 65 -9 10 -2 33 -6 52 -10 19 -3 55 -8 80 -11 25 -3 56 -7 70 -10 14
-3 41 -7 60 -10 19 -3 118 -22 220 -41 102 -19 197 -37 213 -39 28 -5 156 -33
192 -41 11 -3 31 -7 45 -10 14 -2 36 -7 50 -11 91 -23 260 -56 265 -51 5 4 21
81 31 143 3 17 7 37 10 45 3 8 8 29 11 45 2 17 13 75 23 130 10 55 21 116 25
135 3 19 7 46 10 60 4 26 12 78 21 140 3 19 7 46 9 60 2 14 6 48 10 75 3 28 8
64 10 80 2 17 7 57 10 90 3 33 8 76 10 95 2 19 7 78 10 130 3 52 8 124 10 160
6 88 6 424 0 535 -19 382 -99 752 -212 980 -123 247 -265 370 -483 414 -70 14
-249 19 -320 9z"/>
<path d="M5240 7229 c-99 -9 -133 -16 -205 -39 -147 -49 -279 -184 -380 -390
-33 -68 -109 -281 -119 -334 -2 -11 -13 -66 -24 -121 -25 -122 -30 -153 -38
-230 -3 -33 -7 -71 -10 -85 -24 -151 -24 -704 1 -975 7 -80 16 -165 20 -187 2
-13 6 -50 10 -83 4 -32 8 -66 10 -75 1 -8 6 -37 9 -65 8 -58 12 -87 26 -175
11 -69 16 -92 56 -295 14 -71 28 -141 31 -155 3 -14 6 -29 7 -35 2 -5 6 -27
10 -47 7 -32 12 -37 30 -33 11 3 111 25 221 50 202 46 311 70 375 80 19 3 103
19 185 35 123 24 304 54 445 75 14 2 70 11 125 19 89 14 236 33 395 51 52 6
68 8 164 21 21 2 43 7 47 10 5 2 75 93 156 202 118 157 318 415 434 557 26 31
272 319 284 331 5 6 33 37 60 68 57 66 63 73 191 211 128 138 154 168 154 175
0 4 -33 36 -72 71 -40 35 -79 71 -88 79 -9 8 -69 60 -135 115 -66 55 -122 102
-125 105 -3 3 -48 40 -100 81 -231 184 -521 386 -755 526 -449 269 -883 435
-1200 459 -38 3 -81 6 -95 8 -14 1 -59 -1 -100 -5z"/>
<path d="M8330 5219 c-138 -148 -161 -174 -213 -233 -29 -33 -70 -80 -93 -105
-33 -37 -152 -177 -231 -271 -43 -51 -233 -293 -233 -296 0 -2 71 0 158 3 210
10 1152 10 1375 0 l179 -7 -49 61 c-66 84 -366 445 -411 494 -20 22 -75 83
-122 135 -93 104 -91 101 -203 218 -43 45 -79 82 -80 82 -1 0 -36 -36 -77 -81z"/>
<path d="M8056 3633 c-1 -1 -91 -4 -201 -8 -110 -3 -222 -8 -250 -10 -27 -3
-102 -7 -165 -10 -105 -5 -160 -9 -275 -20 -22 -2 -66 -5 -97 -6 l-56 -2 -180
-271 c-406 -611 -733 -1178 -1038 -1796 -64 -129 -129 -260 -145 -291 -16 -31
-29 -60 -29 -63 0 -9 1370 -7 1371 2 1 4 2 32 4 62 5 91 17 179 39 275 25 113
154 415 177 415 5 0 9 5 9 12 0 38 213 274 325 359 186 140 415 241 625 274
25 4 54 9 65 12 72 15 300 9 425 -11 187 -29 410 -123 579 -244 357 -255 579
-663 594 -1094 l2 -68 687 0 c378 0 689 4 692 8 4 7 -274 573 -356 722 -19 36
-55 101 -78 145 -67 125 -250 445 -282 492 -15 23 -28 44 -28 47 0 6 -63 112
-104 176 -13 19 -47 73 -76 120 -79 127 -284 444 -290 450 -3 3 -45 65 -94
138 l-89 132 -41 1 c-23 1 -52 2 -66 4 -14 1 -74 5 -135 9 -60 4 -137 9 -170
11 -69 5 -212 12 -435 21 -140 6 -909 12 -914 7z"/>
<path d="M6005 3460 c-22 -5 -114 -21 -205 -35 -91 -15 -174 -29 -185 -31 -11
-2 -45 -8 -75 -14 -30 -6 -66 -12 -80 -15 -14 -3 -59 -12 -100 -20 -108 -21
-245 -50 -399 -85 -73 -16 -134 -30 -136 -30 -1 0 11 -39 26 -87 16 -49 31
-97 33 -108 6 -30 138 -424 186 -555 23 -63 46 -128 52 -145 5 -16 16 -43 23
-60 7 -16 34 -85 60 -153 26 -67 49 -121 50 -120 5 5 49 87 115 213 180 343
424 763 682 1173 10 15 24 39 33 55 15 27 15 27 -12 26 -16 -1 -46 -5 -68 -9z"/>
<path d="M10739 3451 c7 -12 57 -91 111 -177 55 -85 100 -157 100 -159 0 -2
17 -30 38 -62 22 -32 41 -63 43 -68 2 -6 43 -75 90 -155 48 -80 97 -163 109
-185 12 -22 51 -90 85 -151 58 -101 89 -159 216 -401 24 -46 46 -79 49 -75 4
4 22 48 40 97 18 50 39 104 46 120 33 76 183 509 234 675 18 58 40 130 50 160
48 147 50 159 32 164 -13 4 -247 56 -362 81 -72 15 -287 58 -380 74 -63 12
-126 23 -140 26 -13 3 -42 7 -65 11 -22 3 -76 12 -120 19 -44 7 -104 16 -133
20 -53 7 -54 7 -43 -14z"/>
<path d="M12661 3017 c-5 -18 -39 -126 -75 -242 -81 -261 -194 -590 -276 -800
-34 -88 -73 -187 -85 -220 -28 -75 -89 -224 -136 -330 -65 -148 -108 -259
-103 -266 3 -5 692 -9 1689 -9 l1684 0 -5 53 c-19 196 -133 396 -354 618 -204
205 -390 344 -750 559 -56 34 -247 135 -360 191 -114 56 -202 96 -405 184 -16
7 -97 38 -180 70 -82 31 -159 61 -170 66 -11 4 -120 42 -242 83 l-222 75 -10
-32z"/>
<path d="M4110 3030 c-819 -271 -1310 -495 -1805 -826 -151 -101 -151 -101
-289 -215 -322 -267 -513 -544 -533 -776 l-6 -63 1687 0 c927 0 1686 2 1686 5
0 4 -159 382 -186 440 -87 191 -324 848 -432 1197 -42 136 -81 247 -87 247 -5
0 -21 -4 -35 -9z"/>
</g>
</svg>
