<svg width="1687" height="1458" viewBox="0 0 1687 1458" fill="none" xmlns="http://www.w3.org/2000/svg">
<path fill-rule="evenodd" clip-rule="evenodd" d="M843.5 0L1687 1458H1604.87C1604.87 1457.65 1604.87 1457.3 1604.87 1456.96C1604.87 1356.13 1478.26 1260.57 1284.14 1201.32C1328.94 1004 1309.03 847.021 1221.3 796.762C1201.16 785.02 1177.63 779.433 1151.93 779.388V779.078C1066.38 779.078 954.386 839.885 841.15 945.368C727.914 840.506 615.922 780.319 530.372 780.319V780.629C504.241 780.629 480.598 786.214 460.067 798.003C372.651 848.262 353.052 1004.93 398.16 1201.63C204.663 1261.19 78.6724 1356.44 78.6724 1456.96C78.6724 1457.3 78.6739 1457.65 78.6769 1458H0L843.5 0ZM1535.8 1457.55C1535.8 1457.7 1535.8 1457.85 1535.79 1458H1198.71L1198.31 1457.11L1197.97 1456.34C1226.59 1391.81 1249.61 1328.83 1267.03 1268.33C1297.83 1277.95 1327.07 1288.5 1354.45 1299.97C1464.57 1346.82 1535.81 1408.25 1535.81 1456.96C1535.81 1457.15 1535.81 1457.35 1535.8 1457.55ZM1121.75 1456.65C1121.54 1457.1 1121.33 1457.55 1121.11 1458H983.624C983.627 1457.65 983.628 1457.31 983.628 1456.96C983.628 1378.65 919.978 1315.18 841.461 1315.18C762.944 1315.18 699.293 1378.65 699.293 1456.96C699.293 1457.31 699.295 1457.65 699.297 1458H561.845L561.792 1457.89C581.08 1416.32 602.856 1374.74 626.188 1334.1C650.453 1292.22 675.34 1252.51 701.16 1215.59C747.512 1211.56 794.486 1209.38 841.772 1209.38C888.746 1209.38 935.72 1211.56 981.762 1215.28C1007.58 1252.2 1032.78 1291.6 1057.04 1333.17C1080.69 1373.81 1102.15 1415.07 1121.75 1456.65ZM485.265 1457.58L485.078 1458H147.745C147.738 1457.65 147.734 1457.3 147.734 1456.96C147.734 1408.25 218.973 1346.51 329.098 1299.97C355.852 1288.5 385.094 1278.26 415.27 1268.64C433.002 1329.45 456.333 1392.74 485.265 1457.58ZM890.613 993.766C991.865 899.913 1086.92 848.427 1151.62 848.262V848.572C1165.93 848.572 1177.44 851.364 1187.08 856.639C1229.39 880.837 1247.74 972.979 1233.43 1091.49C1230.01 1120.65 1224.41 1151.37 1217.57 1182.7C1156.59 1167.81 1090.02 1156.33 1020.03 1148.89C978.028 1091.49 934.476 1039.37 890.613 993.766ZM530.372 849.503C594.768 849.503 690.272 900.693 791.687 994.076C748.134 1039.68 704.582 1091.49 663.207 1148.89C592.901 1156.33 526.328 1167.81 465.355 1183.01C458.2 1151.99 452.911 1121.9 449.178 1093.04C434.557 974.531 452.6 882.389 494.597 857.88C503.93 852.295 516.062 849.813 530.372 849.813V849.503ZM1199.83 1250.03C1188.32 1290.05 1174.01 1331.31 1157.84 1372.57C1145.08 1347.75 1131.71 1322.93 1117.08 1298.11C1102.77 1273.29 1087.53 1249.09 1072.29 1225.52C1116.46 1232.03 1159.08 1240.1 1199.83 1250.03ZM840.839 1042.78C869.77 1072.57 898.701 1105.76 927.321 1142.06C899.323 1140.82 870.703 1139.89 841.772 1139.89C812.53 1139.89 783.598 1140.51 755.289 1142.06C783.287 1105.76 812.219 1072.57 840.839 1042.78ZM610.633 1225.52C595.39 1249.41 580.147 1273.91 565.837 1299.04C551.526 1323.86 538.15 1348.68 525.395 1373.5C508.596 1331.93 494.286 1290.36 482.465 1250.03C523.217 1240.41 566.148 1232.03 610.633 1225.52Z" fill="white"/>
</svg>
